<svg xmlns="http://www.w3.org/2000/svg" width="32" height="32" fill="none" viewBox="0 0 32 32">
  <path fill="#fff" fill-rule="evenodd" d="M16 31c8.284 0 15-6.716 15-15 0-8.284-6.716-15-15-15C7.716 1 1 7.716 1 16c0 8.284 6.716 15 15 15Zm3.837-6.66c3.668-1.733 4.817-4.933 5.076-6.18-1.34 1.374-2.825 2.767-3.823 1.803 0 0-.054-5.144-.054-7.253 0-2.835 2.69-4.949 2.69-4.949-1.48.263-3.256.79-5.141 2.64a6.97 6.97 0 0 0-.484.532c-.807-.619-1.854-.434-1.854-.434.565.311 1.13 1.216 1.13 1.966v7.365s-1.234 1.085-2.184 1.085a1.343 1.343 0 0 1-1.1-.556 1.448 1.448 0 0 1-.185-.32v-9.1c-.28.232-1.23.423-1.23-1.153 0-.98.705-2.147 1.962-2.863a9.262 9.262 0 0 0-4.662 2.15 9.128 9.128 0 0 0-3.16 6.997s.92-2.872 2.07-3.137a1.113 1.113 0 0 1 1.396 1.113v6.742c0 .684-.44.833-.848.826a3.575 3.575 0 0 1-.812-.153 9.175 9.175 0 0 0 7.254 3.72l2.486-2.498 1.473 1.656Z" clip-rule="evenodd"/>
</svg>
